<svg width="24" height="24" viewBox="0 0 24 24" fill="none" xmlns="http://www.w3.org/2000/svg">
<path d="M20.2971 4.37759C20.2971 4.56759 20.2271 4.75759 20.0771 4.90759L13.5571 11.4276C13.0771 11.9076 13.0771 12.6876 13.5571 13.1676L20.0771 19.6876C20.3671 19.9776 20.3671 20.4576 20.0771 20.7476C19.7871 21.0376 19.3071 21.0376 19.0171 20.7476L12.4971 14.2276C11.4371 13.1676 11.4371 11.4376 12.4971 10.3676L19.0171 3.84759C19.3071 3.55759 19.7871 3.55759 20.0771 3.84759C20.2171 3.99759 20.2971 4.18759 20.2971 4.37759Z" fill="white"/>
<path d="M12.2971 4.37759C12.2971 4.56759 12.2271 4.75759 12.0771 4.90759L5.55715 11.4276C5.07715 11.9076 5.07715 12.6876 5.55715 13.1676L12.0771 19.6876C12.3671 19.9776 12.3671 20.4576 12.0771 20.7476C11.7871 21.0376 11.3071 21.0376 11.0171 20.7476L4.49715 14.2276C3.43715 13.1676 3.43715 11.4376 4.49715 10.3676L11.0171 3.84759C11.3071 3.55759 11.7871 3.55759 12.0771 3.84759C12.2171 3.99759 12.2971 4.18759 12.2971 4.37759Z" fill="white"/>
</svg>
