<svg width="24" height="24" viewBox="0 0 24 24" fill="none" xmlns="http://www.w3.org/2000/svg">
<path d="M19.1023 8.70742C18.8795 6.27979 17.4759 4.12732 15.3644 2.97449C13.2528 1.82166 10.7138 1.82166 8.60238 2.97449C6.49092 4.12751 5.08737 6.27998 4.86446 8.70742C3.755 8.9472 2.81772 9.69677 2.32639 10.7368C1.83506 11.7768 1.8453 12.9898 2.35433 14.021C2.86316 15.0522 3.81323 15.7853 4.92652 16.0056C5.20186 17.7085 6.0623 19.2566 7.35465 20.3744C8.64695 21.4922 10.2873 22.1071 11.9836 22.1099H13.0175C13.6805 22.1099 14.3163 21.8418 14.7851 21.3649C15.2539 20.8881 15.5172 20.2412 15.5172 19.5667C15.5172 18.8921 15.2539 18.2452 14.7851 17.7682C14.3163 17.2913 13.6805 17.0234 13.0175 17.0234C12.3547 17.0234 11.7189 17.2913 11.2501 17.7682C10.7813 18.2452 10.5178 18.8921 10.5178 19.5667V20.3346C9.41072 20.026 8.42293 19.3801 7.68728 18.4834C6.95157 17.5868 6.50336 16.4826 6.40273 15.3192C6.47774 11.1322 6.48279 9.79615 6.3847 9.27015H6.38452C6.40724 7.23509 7.49523 5.3668 9.23888 4.36895C10.9825 3.37134 13.1169 3.3959 14.8381 4.43353C16.5592 5.47097 17.6054 7.36387 17.5829 9.39907V9.44383C17.4718 15.4928 17.5183 15.5506 17.8027 15.8479H17.8025C17.9507 15.9987 18.1514 16.0838 18.3609 16.0845C19.5674 16.0649 20.687 15.4419 21.3541 14.419C22.0215 13.396 22.1506 12.1043 21.6996 10.9656C21.2488 9.82692 20.2755 8.98706 19.0977 8.72049L19.1023 8.70742Z" fill="#EBF9F5"/>
</svg>
