<svg width="33" height="32" viewBox="0 0 33 32" fill="none" xmlns="http://www.w3.org/2000/svg">
<path d="M26.4572 11.3464C26.1452 7.94776 24.1802 4.9343 21.2241 3.32034C18.2678 1.70637 14.7132 1.70637 11.7573 3.32034C8.80125 4.93457 6.83628 7.94802 6.52421 11.3464C4.97096 11.6821 3.65877 12.7315 2.9709 14.1876C2.28304 15.6436 2.29739 17.3418 3.01003 18.7855C3.72239 20.2291 5.05249 21.2554 6.6111 21.5639C6.99657 23.9479 8.20118 26.1153 10.0105 27.6802C11.8197 29.2451 14.1161 30.106 16.491 30.1099H17.9385C18.8667 30.1099 19.7568 29.7346 20.4131 29.0669C21.0694 28.3994 21.438 27.4937 21.438 26.5494C21.438 25.605 21.0694 24.6994 20.4131 24.0316C19.7568 23.3638 18.8667 22.9889 17.9385 22.9889C17.0105 22.9889 16.1204 23.3638 15.4641 24.0316C14.8077 24.6993 14.4389 25.605 14.4389 26.5494V27.6245C12.889 27.1925 11.5061 26.2882 10.4762 25.0328C9.44617 23.7776 8.81867 22.2317 8.67778 20.6029C8.7828 14.7411 8.78987 12.8707 8.65254 12.1343H8.65229C8.6841 9.28518 10.2073 6.66958 12.6484 5.27259C15.0895 3.87593 18.0776 3.91031 20.4873 5.36299C22.8969 6.81541 24.3615 9.46547 24.33 12.3147V12.3774C24.1745 20.846 24.2396 20.9269 24.6377 21.3431H24.6374C24.8449 21.5542 25.1259 21.6734 25.4193 21.6744C27.1084 21.6469 28.6758 20.7747 29.6098 19.3426C30.544 17.9105 30.7248 16.1021 30.0934 14.5079C29.4624 12.9137 28.0997 11.7379 26.4508 11.3647L26.4572 11.3464Z" fill="#45C49C"/>
</svg>
