<svg width="20" height="20" viewBox="0 0 20 20" fill="none" xmlns="http://www.w3.org/2000/svg">
<path d="M17.1538 17.9999H2.84615C2.52026 17.9999 2.25 17.7279 2.25 17.4C2.25 17.072 2.52026 16.8 2.84615 16.8H17.1538C17.4797 16.8 17.75 17.072 17.75 17.4C17.75 17.7279 17.4797 17.9999 17.1538 17.9999Z" fill="#061B2E"/>
<path d="M15.58 3.18506C14.0379 1.63318 12.5277 1.59318 10.9459 3.18506L9.9841 4.15298C9.90462 4.23298 9.87282 4.36097 9.90462 4.47296C10.5087 6.5928 12.1938 8.28866 14.3003 8.89662C14.3321 8.90462 14.3638 8.91262 14.3956 8.91262C14.4831 8.91262 14.5626 8.88062 14.6262 8.81662L15.58 7.8487C16.3669 7.06476 16.7485 6.30482 16.7485 5.53688C16.7564 4.74494 16.3749 3.977 15.58 3.18506Z" fill="#061B2E"/>
<path d="M12.8695 9.62456C12.639 9.51257 12.4164 9.40058 12.2018 9.27259C12.0269 9.1686 11.86 9.05661 11.6931 8.93661C11.5579 8.84862 11.399 8.72063 11.2479 8.59264C11.2321 8.58464 11.1764 8.53665 11.1128 8.47265C10.8505 8.24867 10.5564 7.96069 10.2941 7.64071C10.2703 7.62472 10.2305 7.56872 10.1749 7.49673C10.0954 7.40073 9.96026 7.24075 9.84103 7.05676C9.74564 6.93677 9.63436 6.76078 9.53103 6.5848C9.40385 6.36881 9.29256 6.15283 9.18128 5.92885C9.16444 5.89253 9.14815 5.8564 9.13235 5.82048C9.01505 5.55385 8.66957 5.4759 8.46468 5.68209L3.91128 10.2645C3.80795 10.3685 3.71256 10.5685 3.68872 10.7045L3.25949 13.7682C3.18 14.3122 3.33103 14.8242 3.66487 15.1681C3.95103 15.4481 4.34846 15.6001 4.77769 15.6001C4.87308 15.6001 4.96846 15.5921 5.06385 15.5761L8.11615 15.1441C8.25923 15.1201 8.45795 15.0241 8.55333 14.9202L13.101 10.3435C13.3074 10.1358 13.2295 9.77949 12.9612 9.66425C12.931 9.65128 12.9004 9.63805 12.8695 9.62456Z" fill="#061B2E"/>
</svg>
