<svg width="18" height="18" viewBox="0 0 18 18" fill="none" xmlns="http://www.w3.org/2000/svg">
<path d="M0.70224 17.2176C0.70224 17.0276 0.772242 16.8376 0.922241 16.6876L7.44224 10.1676C7.92224 9.68763 7.92224 8.90763 7.44224 8.42763L0.922241 1.90763C0.63224 1.61763 0.63224 1.13763 0.922241 0.847627C1.21224 0.557627 1.69224 0.557627 1.98224 0.847627L8.50224 7.36763C9.56224 8.42763 9.56224 10.1576 8.50224 11.2276L1.98224 17.7476C1.69224 18.0376 1.21224 18.0376 0.922241 17.7476C0.782242 17.5976 0.70224 17.4076 0.70224 17.2176Z" fill="#317873"/>
<path d="M8.70224 17.2176C8.70224 17.0276 8.77224 16.8376 8.92224 16.6876L15.4422 10.1676C15.9222 9.68763 15.9222 8.90763 15.4422 8.42763L8.92224 1.90763C8.63224 1.61763 8.63224 1.13763 8.92224 0.847627C9.21224 0.557627 9.69224 0.557627 9.98224 0.847627L16.5022 7.36763C17.5622 8.42763 17.5622 10.1576 16.5022 11.2276L9.98224 17.7476C9.69224 18.0376 9.21224 18.0376 8.92224 17.7476C8.78224 17.5976 8.70224 17.4076 8.70224 17.2176Z" fill="#317873"/>
</svg>
