<svg width="20" height="18" viewBox="0 0 20 18" fill="none" xmlns="http://www.w3.org/2000/svg">
<path d="M13.49 17.7599C13.3 17.7599 13.11 17.6899 12.96 17.5399C12.67 17.2499 12.67 16.7699 12.96 16.4799L17.97 11.4699C18.26 11.1799 18.74 11.1799 19.03 11.4699C19.32 11.7599 19.32 12.2399 19.03 12.5299L14.02 17.5399C13.87 17.6799 13.68 17.7599 13.49 17.7599Z" fill="#EBF9F5"/>
<path d="M18.5 12.7399H1.5C1.09 12.7399 0.75 12.3999 0.75 11.9899C0.75 11.5799 1.09 11.2399 1.5 11.2399H18.5C18.91 11.2399 19.25 11.5799 19.25 11.9899C19.25 12.3999 18.91 12.7399 18.5 12.7399Z" fill="#EBF9F5"/>
<path d="M1.5 6.75994C1.31 6.75994 1.12 6.68994 0.97 6.53994C0.68 6.24994 0.68 5.76994 0.97 5.47994L5.98 0.469941C6.27 0.179941 6.75 0.179941 7.04 0.469941C7.33 0.759941 7.33 1.23994 7.04 1.52994L2.03 6.53994C1.89 6.67994 1.69 6.75994 1.5 6.75994Z" fill="#EBF9F5"/>
<path d="M18.5 6.75994H1.5C1.09 6.75994 0.75 6.41994 0.75 6.00994C0.75 5.59994 1.09 5.25994 1.5 5.25994H18.5C18.91 5.25994 19.25 5.59994 19.25 6.00994C19.25 6.41994 18.91 6.75994 18.5 6.75994Z" fill="#EBF9F5"/>
</svg>
