<svg width="18" height="18" viewBox="0 0 18 18" fill="none" xmlns="http://www.w3.org/2000/svg">
<path d="M8.5928 16.936C3.99409 16.936 0.25 13.1919 0.25 8.59302C0.25 3.99419 3.99409 0.25 8.5928 0.25C13.1915 0.25 16.9356 3.99419 16.9356 8.59302C16.9356 13.1919 13.1915 16.936 8.5928 16.936ZM8.5928 1.47093C4.66151 1.47093 1.4709 4.66977 1.4709 8.59302C1.4709 12.5163 4.66151 15.7151 8.5928 15.7151C12.5241 15.7151 15.7147 12.5163 15.7147 8.59302C15.7147 4.66977 12.5241 1.47093 8.5928 1.47093Z" fill="#061B2E"/>
<path d="M17.1391 17.75C16.9844 17.75 16.8298 17.693 16.7077 17.5709L15.0798 15.943C14.8438 15.707 14.8438 15.3163 15.0798 15.0802C15.3159 14.8442 15.7066 14.8442 15.9426 15.0802L17.5705 16.7081C17.8065 16.9442 17.8065 17.3349 17.5705 17.5709C17.4484 17.693 17.2937 17.75 17.1391 17.75Z" fill="#061B2E"/>
</svg>
