<svg width="24" height="24" viewBox="0 0 24 24" fill="none" xmlns="http://www.w3.org/2000/svg">
<path d="M12.6777 19.957C12.9524 20.021 12.9776 20.3808 12.71 20.47L11.13 20.99C7.15998 22.27 5.06997 21.2 3.77998 17.23L2.49997 13.28C1.21997 9.31001 2.27997 7.21001 6.24997 5.93001L6.77397 5.75648C7.17684 5.62306 7.5689 6.02712 7.45451 6.43579C7.3978 6.63837 7.34326 6.84977 7.28997 7.07001L6.30997 11.26C5.20997 15.97 6.81997 18.57 11.53 19.69L12.6777 19.957Z" fill="#EBF9F5"/>
<path d="M17.17 3.21001L15.5 2.82001C12.16 2.03001 10.17 2.68001 8.99997 5.10001C8.69997 5.71001 8.45998 6.45001 8.25997 7.30001L7.27997 11.49C6.29997 15.67 7.58997 17.73 11.76 18.72L13.44 19.12C14.02 19.26 14.56 19.35 15.06 19.39C18.18 19.69 19.84 18.23 20.68 14.62L21.66 10.44C22.64 6.26001 21.36 4.19001 17.17 3.21001ZM15.29 13.33C15.2 13.67 14.9 13.89 14.56 13.89C14.5 13.89 14.44 13.88 14.37 13.87L11.46 13.13C11.06 13.03 10.82 12.62 10.92 12.22C11.02 11.82 11.43 11.58 11.83 11.68L14.74 12.42C15.15 12.52 15.39 12.93 15.29 13.33ZM18.22 9.95001C18.13 10.29 17.83 10.51 17.49 10.51C17.43 10.51 17.37 10.5 17.3 10.49L12.45 9.26001C12.05 9.16001 11.81 8.75001 11.91 8.35001C12.01 7.95001 12.42 7.71001 12.82 7.81001L17.67 9.04001C18.08 9.13001 18.32 9.54001 18.22 9.95001Z" fill="#EBF9F5"/>
</svg>
