<svg width="32" height="32" viewBox="0 0 32 32" fill="none" xmlns="http://www.w3.org/2000/svg">
<path d="M16.9573 27.3064C17.342 27.3973 17.3772 27.9086 17.0025 28.0354L14.7901 28.7743C9.23099 30.5932 6.30442 29.0727 4.49807 23.4312L2.70572 17.8181C0.913372 12.1766 2.39766 9.19247 7.95674 7.37354L8.69048 7.12695C9.2546 6.93736 9.8036 7.51154 9.64341 8.09228C9.56401 8.38014 9.48763 8.68056 9.41302 8.99352L8.04076 14.9477C6.50046 21.6407 8.7549 25.3354 15.3502 26.927L16.9573 27.3064Z" fill="#45C49C"/>
<path d="M23.2477 3.50833L20.9093 2.95413C16.2323 1.83151 13.4458 2.75518 11.8075 6.19408C11.3874 7.06092 11.0513 8.11248 10.7713 9.32036L9.39902 15.2745C8.02675 21.2144 9.83311 24.1417 15.6722 25.5486L18.0247 26.117C18.8369 26.3159 19.593 26.4438 20.2931 26.5007C24.662 26.927 26.9864 24.8523 28.1627 19.7223L29.5349 13.7824C30.9072 7.84248 29.1149 4.90094 23.2477 3.50833ZM20.6152 17.8892C20.4892 18.3723 20.0691 18.685 19.593 18.685C19.509 18.685 19.425 18.6708 19.327 18.6566L15.2522 17.605C14.692 17.4629 14.356 16.8803 14.496 16.3118C14.636 15.7434 15.2102 15.4024 15.7703 15.5445L19.8451 16.5961C20.4192 16.7382 20.7552 17.3208 20.6152 17.8892ZM24.718 13.0861C24.592 13.5693 24.1719 13.8819 23.6958 13.8819C23.6118 13.8819 23.5278 13.8677 23.4297 13.8535L16.6384 12.1056C16.0783 11.9635 15.7423 11.3809 15.8823 10.8124C16.0223 10.244 16.5964 9.90298 17.1565 10.0451L23.9478 11.793C24.522 11.9209 24.858 12.5035 24.718 13.0861Z" fill="#45C49C"/>
</svg>
